<svg width="1400" height="360" viewBox="0 0 1400 360" fill="none" xmlns="http://www.w3.org/2000/svg" role="img" aria-labelledby="title desc">
  <title id="title">Reverbin logo</title>
  <desc id="desc">Reverbin copper ripple R mark with ivory serif wordmark.</desc>
  <rect width="1400" height="360" fill="#0E0F10"/>
  <g transform="translate(82 54) scale(.5)">
    <g stroke="#B8734A" stroke-width="28" stroke-linecap="round" stroke-linejoin="round">
      <path d="M164 384V116"/>
      <path d="M164 128H246C302 128 340 163 340 214C340 264 302 298 248 298H164"/>
      <path d="M232 298L346 384"/>
      <path d="M164 178H238C268 178 289 192 289 216C289 240 269 254 238 254H164" stroke-width="20" opacity="0.92"/>
    </g>
    <g stroke="#DDE6C5" stroke-width="13" stroke-linecap="round" opacity="0.72">
      <path d="M113 132C70 176 48 233 50 292"/>
      <path d="M93 108C35 167 8 243 15 320" opacity="0.5"/>
      <path d="M121 383C78 338 57 280 63 222" opacity="0.48"/>
    </g>
    <g stroke="#B8734A" stroke-width="10" stroke-linecap="round" opacity="0.7">
      <path d="M189 96C263 74 344 103 390 168"/>
      <path d="M200 72C294 45 394 86 445 170" opacity="0.45"/>
      <path d="M368 328C338 373 289 404 232 414" opacity="0.45"/>
    </g>
    <circle cx="164" cy="298" r="10" fill="#D7E6C5"/>
    <circle cx="346" cy="384" r="8" fill="#D7E6C5"/>
  </g>
  <text x="350" y="229" fill="#F6F3EF" font-family="Georgia, 'Times New Roman', serif" font-size="148" letter-spacing="-7">Reverbin</text>
  <text x="360" y="285" fill="#B8734A" font-family="ui-monospace, SFMono-Regular, Menlo, Consolas, monospace" font-size="22" letter-spacing="9">AGENT-NATIVE EMAIL INFRASTRUCTURE</text>
</svg>
