<svg width="512" height="512" viewBox="0 0 512 512" fill="none" xmlns="http://www.w3.org/2000/svg" role="img" aria-labelledby="title desc">
  <title id="title">Reverbin mark</title>
  <desc id="desc">A copper R formed from reverberating signal arcs and a routing stem.</desc>
  <rect width="512" height="512" rx="108" fill="#0E0F10"/>
  <g stroke="#B8734A" stroke-width="28" stroke-linecap="round" stroke-linejoin="round">
    <path d="M164 384V116"/>
    <path d="M164 128H246C302 128 340 163 340 214C340 264 302 298 248 298H164"/>
    <path d="M232 298L346 384"/>
    <path d="M164 178H238C268 178 289 192 289 216C289 240 269 254 238 254H164" stroke-width="20" opacity="0.92"/>
  </g>
  <g stroke="#DDE6C5" stroke-width="13" stroke-linecap="round" opacity="0.72">
    <path d="M113 132C70 176 48 233 50 292"/>
    <path d="M93 108C35 167 8 243 15 320" opacity="0.5"/>
    <path d="M121 383C78 338 57 280 63 222" opacity="0.48"/>
  </g>
  <g stroke="#B8734A" stroke-width="10" stroke-linecap="round" opacity="0.7">
    <path d="M189 96C263 74 344 103 390 168"/>
    <path d="M200 72C294 45 394 86 445 170" opacity="0.45"/>
    <path d="M368 328C338 373 289 404 232 414" opacity="0.45"/>
  </g>
  <circle cx="164" cy="298" r="10" fill="#D7E6C5"/>
  <circle cx="346" cy="384" r="8" fill="#D7E6C5"/>
</svg>
