<svg width="512" height="512" viewBox="0 0 512 512" fill="none" xmlns="http://www.w3.org/2000/svg" role="img" aria-labelledby="title desc">
  <title id="title">Reverbin mark</title>
  <desc id="desc">A technical circular R mark with reverberation rings and routed signal nodes.</desc>
  <rect width="512" height="512" rx="108" fill="#0A0A0A"/>
  <circle cx="256" cy="256" r="206" fill="#070808" stroke="#F4F4F2" stroke-opacity="0.34" stroke-width="8"/>
  <path d="M256 50C332 50 398 91 434 152" stroke="#C6FF6E" stroke-width="14" stroke-linecap="round"/>
  <path d="M462 260C462 329 428 390 376 428" stroke="#BDE6D3" stroke-opacity="0.72" stroke-width="11" stroke-linecap="round"/>
  <path d="M150 433C84 393 50 322 61 246" stroke="#F4F4F2" stroke-opacity="0.48" stroke-width="11" stroke-linecap="round"/>
  <path d="M136 137H269C339 137 386 179 386 242C386 306 339 347 269 347H136" stroke="#F4F4F2" stroke-width="38" stroke-linecap="round" stroke-linejoin="round"/>
  <path d="M139 381V137" stroke="#F4F4F2" stroke-width="38" stroke-linecap="round"/>
  <path d="M254 347L371 458" stroke="#F4F4F2" stroke-width="38" stroke-linecap="round"/>
  <path d="M160 237H262C291 237 309 250 309 270C309 291 291 303 262 303H160" stroke="#C6FF6E" stroke-width="16" stroke-linecap="round" stroke-linejoin="round"/>
  <circle cx="386" cy="153" r="17" fill="#C6FF6E"/>
  <circle cx="371" cy="458" r="14" fill="#BDE6D3"/>
  <circle cx="63" cy="246" r="10" fill="#BDE6D3"/>
</svg>
