<svg width="512" height="512" viewBox="0 0 512 512" fill="none" xmlns="http://www.w3.org/2000/svg" role="img" aria-labelledby="title desc">
  <title id="title">Reverbin mark</title>
  <desc id="desc">A production-ready lowercase-era Reverbin R mark with a lime message path, echo rings, and signal nodes.</desc>
  <rect width="512" height="512" rx="72" fill="#050606"/>
  <path d="M106 263C106 180 174 112 258 112C340 112 405 174 413 253" stroke="#B9FF2D" stroke-opacity="0.82" stroke-width="12" stroke-linecap="round"/>
  <path d="M410 280C396 354 334 403 258 403C177 403 112 344 106 267" stroke="#B9FF2D" stroke-opacity="0.42" stroke-width="12" stroke-linecap="round"/>
  <path d="M82 206C67 226 59 251 59 278C59 305 68 331 84 351" stroke="#F4F4F2" stroke-opacity="0.24" stroke-width="14" stroke-linecap="round"/>
  <path d="M113 222C102 239 96 258 96 278C96 299 102 319 114 336" stroke="#BDE6D3" stroke-opacity="0.46" stroke-width="13" stroke-linecap="round"/>
  <path d="M148 383V129H292C364 129 410 169 410 231C410 292 365 330 292 330H148" stroke="#F4F4F2" stroke-width="42" stroke-linecap="round" stroke-linejoin="round"/>
  <path d="M286 330L394 432" stroke="#F4F4F2" stroke-width="42" stroke-linecap="round"/>
  <path d="M190 228H289C327 228 351 245 351 271C351 297 327 313 289 313H190" stroke="#B9FF2D" stroke-width="26" stroke-linecap="round"/>
  <circle cx="383" cy="264" r="16" fill="#B9FF2D" stroke="#050606" stroke-width="5"/>
  <circle cx="394" cy="432" r="16" fill="#B9FF2D" stroke="#050606" stroke-width="5"/>
</svg>
